<svg width="24" height="24" viewBox="0 0 24 24" fill="none" xmlns="http://www.w3.org/2000/svg">
<path d="M9.99983 18.7429C11.7748 18.7426 13.4986 18.1483 14.8968 17.0549L19.2928 21.4509L20.7068 20.0369L16.3108 15.6409C17.4048 14.2426 17.9994 12.5184 17.9998 10.7429C17.9998 6.33192 14.4108 2.74292 9.99983 2.74292C5.58883 2.74292 1.99983 6.33192 1.99983 10.7429C1.99983 15.1539 5.58883 18.7429 9.99983 18.7429ZM9.99983 4.74292C13.3088 4.74292 15.9998 7.43392 15.9998 10.7429C15.9998 14.0519 13.3088 16.7429 9.99983 16.7429C6.69083 16.7429 3.99983 14.0519 3.99983 10.7429C3.99983 7.43392 6.69083 4.74292 9.99983 4.74292Z" fill="white"/>
</svg>
