<svg width="42" height="43" viewBox="0 0 42 43" fill="none" xmlns="http://www.w3.org/2000/svg">
<g clip-path="url(#clip0_2_802)">
<path d="M17.3941 29.27V14.3489L28.4273 21.8095L17.3941 29.27Z" fill="white"/>
<path d="M21.0253 39.1706C11.512 39.1706 3.8004 31.398 3.8004 21.8095C3.8004 12.2209 11.512 4.44836 21.0253 4.44836C30.5386 4.44836 38.2502 12.2209 38.2502 21.8095C38.2502 31.398 30.5386 39.1706 21.0253 39.1706ZM18.6517 15.5855C18.5481 15.5158 18.4276 15.4757 18.3031 15.4696C18.1786 15.4634 18.0548 15.4914 17.9449 15.5506C17.835 15.6097 17.743 15.6978 17.6788 15.8055C17.6146 15.9131 17.5806 16.0363 17.5803 16.1619V27.4571C17.5806 27.5827 17.6146 27.7059 17.6788 27.8135C17.743 27.9212 17.835 28.0093 17.9449 28.0684C18.0548 28.1276 18.1786 28.1555 18.3031 28.1494C18.4276 28.1432 18.5481 28.1032 18.6517 28.0334L27.0558 22.3876C27.1503 22.3242 27.2278 22.2383 27.2814 22.1374C27.335 22.0366 27.363 21.9239 27.363 21.8095C27.363 21.6951 27.335 21.5824 27.2814 21.4816C27.2278 21.3807 27.1503 21.2947 27.0558 21.2314L18.6517 15.5855Z" fill="#DA3714"/>
</g>
<defs>
<clipPath id="clip0_2_802">
<rect width="41.3398" height="41.6667" fill="white" transform="translate(0.355438 0.976196)"/>
</clipPath>
</defs>
</svg>
