<svg width="10" height="10" viewBox="0 0 10 10" fill="none" xmlns="http://www.w3.org/2000/svg">
<path d="M6.09244 7.07887L4.42481 6.16215C4.26473 6.3223 4.0612 6.4311 3.83986 6.47483C3.61853 6.51857 3.3893 6.49527 3.18108 6.40789C2.97286 6.3205 2.79497 6.17294 2.66983 5.9838C2.5447 5.79467 2.47792 5.57243 2.47792 5.34509C2.47792 5.11776 2.5447 4.89552 2.66983 4.70638C2.79497 4.51724 2.97286 4.36968 3.18108 4.2823C3.3893 4.19491 3.61853 4.17162 3.83986 4.21535C4.0612 4.25908 4.26473 4.36789 4.42481 4.52804L6.09244 3.61132C6.03524 3.34086 6.07655 3.05868 6.20881 2.81639C6.34107 2.5741 6.55544 2.38789 6.81272 2.29181C7.07 2.19573 7.35299 2.1962 7.60995 2.29314C7.86691 2.39008 8.08067 2.57701 8.21213 2.81974C8.34359 3.06247 8.38397 3.34478 8.32588 3.61506C8.2678 3.88533 8.11513 4.12549 7.8958 4.29164C7.67647 4.45778 7.40513 4.5388 7.1314 4.51988C6.85767 4.50096 6.59985 4.38336 6.40508 4.18859L4.73745 5.10531C4.77071 5.26341 4.77071 5.42678 4.73745 5.58488L6.40508 6.5016C6.59985 6.30683 6.85767 6.18923 7.1314 6.1703C7.40513 6.15138 7.67647 6.2324 7.8958 6.39855C8.11513 6.56469 8.2678 6.80486 8.32588 7.07513C8.38397 7.3454 8.34359 7.62772 8.21213 7.87045C8.08067 8.11318 7.86691 8.3001 7.60995 8.39704C7.35299 8.49398 7.07 8.49445 6.81272 8.39838C6.55544 8.3023 6.34107 8.11609 6.20881 7.8738C6.07655 7.63151 6.03524 7.34933 6.09244 7.07887Z" fill="white"/>
</svg>
