<svg width="19" height="9" viewBox="0 0 19 9" fill="none" xmlns="http://www.w3.org/2000/svg">
<path d="M1.04682 7.30868V1.38745C1.35417 1.32485 1.60867 1.24953 1.8039 1.07434C2.00777 0.89138 2.12802 0.618415 2.21583 0.20838H17.2844C17.3294 0.55649 17.4507 0.83602 17.6581 1.03994C17.8637 1.24203 18.1387 1.35507 18.4663 1.39906V7.31177C18.1679 7.3766 17.8993 7.50662 17.691 7.70555C17.4812 7.90591 17.3388 8.17043 17.2871 8.49211H2.23418C2.20133 8.15932 2.07789 7.89127 1.86827 7.69075C1.65895 7.49051 1.37634 7.36978 1.04682 7.30868Z" stroke="#727171" stroke-width="0.297619"/>
<path d="M4.85472 1.83032H3.58008V6.76584H4.85472V1.83032Z" fill="#727171"/>
<path d="M9.29396 1.83032V6.76584H8.18172L8.1768 3.4325L7.73387 6.76584H6.94153L6.47891 3.50691L6.47399 6.76584H5.36176V1.83032H7.01043C7.05472 2.12794 7.10393 2.48012 7.16299 2.88191L7.34508 4.13687L7.64037 1.83032H9.29396Z" fill="#727171"/>
<path d="M11.0755 2.67358V5.92754C11.2576 5.92754 11.3707 5.89282 11.4101 5.81346C11.4495 5.73905 11.4741 5.53568 11.4741 5.2083V3.28866C11.4741 3.06544 11.4692 2.92159 11.4544 2.85711C11.4396 2.79262 11.4101 2.74798 11.3609 2.71822C11.3068 2.68846 11.2133 2.67358 11.0755 2.67358ZM9.80082 1.83032H10.7507C11.3658 1.83032 11.7792 1.86008 11.9958 1.91465C12.2123 1.97417 12.3747 2.06346 12.4879 2.19739C12.6011 2.32635 12.67 2.4702 12.6995 2.63389C12.7291 2.79262 12.7438 3.10512 12.7438 3.57635V5.3075C12.7438 5.74897 12.7241 6.04659 12.6798 6.1954C12.6405 6.34421 12.5666 6.46326 12.4633 6.54758C12.36 6.63191 12.232 6.69143 12.0844 6.72616C11.9318 6.76088 11.7054 6.77576 11.4003 6.77576H9.7959L9.80082 1.83032Z" fill="#727171"/>
<path d="M14.7813 3.87397C14.7813 3.66564 14.7665 3.53171 14.7419 3.46723C14.7173 3.40274 14.6632 3.37298 14.5844 3.37298C14.5106 3.37298 14.4614 3.40274 14.4368 3.45731C14.4122 3.51187 14.4023 3.65572 14.4023 3.87893V5.62001C14.4023 5.83826 14.4171 5.97715 14.4417 6.03667C14.4663 6.0962 14.5155 6.12596 14.5943 6.12596C14.673 6.12596 14.7222 6.0962 14.7468 6.03171C14.7715 5.96723 14.7813 5.81842 14.7813 5.58032V3.87397ZM14.4073 1.83032V3.00592C14.5106 2.88687 14.6189 2.79758 14.7468 2.73806C14.8699 2.67854 15.0077 2.64877 15.1504 2.64877C15.3177 2.64877 15.4654 2.67358 15.5884 2.72814C15.7114 2.7827 15.8049 2.85711 15.8689 2.95135C15.9329 3.0456 15.9723 3.13985 15.987 3.23409C16.0018 3.32338 16.0067 3.52179 16.0067 3.81941V5.63985C16.0067 5.93747 15.987 6.15572 15.9477 6.30453C15.9083 6.44838 15.8148 6.57735 15.6721 6.68151C15.5244 6.78568 15.3522 6.84024 15.1553 6.84024C15.0126 6.84024 14.8748 6.81048 14.7518 6.746C14.6287 6.68151 14.5106 6.58727 14.4122 6.4583L14.3334 6.76584H13.1917V1.83032H14.4073Z" fill="#727171"/>
<path d="M16.4743 2.39579H16.5235C16.5777 2.39579 16.6269 2.37595 16.6269 2.32635C16.6269 2.29163 16.6023 2.25195 16.5235 2.25195C16.5038 2.25195 16.4891 2.25195 16.4743 2.25691V2.39579ZM16.4743 2.62893H16.4103V2.21226C16.4448 2.2073 16.4792 2.20234 16.5285 2.20234C16.5924 2.20234 16.6318 2.21722 16.6564 2.2321C16.681 2.25195 16.6958 2.27675 16.6958 2.31643C16.6958 2.37099 16.6613 2.40572 16.617 2.41564V2.4206C16.6515 2.42556 16.6761 2.46028 16.6859 2.52476C16.6958 2.58925 16.7056 2.61405 16.7105 2.62893H16.6416C16.6318 2.61405 16.622 2.57933 16.6121 2.52476C16.6023 2.4702 16.5777 2.45036 16.5235 2.45036H16.4792L16.4743 2.62893ZM16.5432 2.09322C16.3808 2.09322 16.2479 2.23706 16.2479 2.41068C16.2479 2.58925 16.3808 2.72814 16.5481 2.72814C16.7155 2.72814 16.8434 2.58925 16.8434 2.41068C16.8434 2.2321 16.7105 2.09322 16.5432 2.09322ZM16.5432 2.03369C16.745 2.03369 16.9074 2.20234 16.9074 2.41068C16.9074 2.62397 16.745 2.78766 16.5383 2.78766C16.3365 2.78766 16.1692 2.62397 16.1692 2.41068C16.1741 2.20234 16.3414 2.03369 16.5432 2.03369Z" fill="#727171"/>
</svg>
